# xmcd CD database file
#
# Track frame offsets:
#	150
#	26240
#	48827
#	78619
#	97796
#	115945
#	138465
#	154924
#	175104
#	194763
#	214300
#	228580
#	244632
#	268059
#	290126
#	307828
#
# Disc length: 4339 seconds
#
# Revision: 0
# Processed by: cddbd v1.5PL3 Copyright (c) Steve Scherf et al.
# Submitted via: CDex 1.50
#
DISCID=e810f110
DTITLE=B.B. KING - deuces wild
DYEAR=1997
DGENRE=Blues
TTITLE0=if you love me
TTITLE1=the thrill is gone
TTITLE2=rock me baby
TTITLE3=please send me someone to love
TTITLE4=baby i love you
TTITLE5=ain't nobody home
TTITLE6=pauly's birthday boogie
TTITLE7=there must be a better world somewhere
TTITLE8=confessin the blues
TTITLE9=hummingbird
TTITLE10=bring it home to me
TTITLE11=paying the cost to be the boss
TTITLE12=let the good times roll
TTITLE13=dangerous mood
TTITLE14=keep it coming
TTITLE15=cryin' won't help you babe
EXTD=YEAR: 1997
EXTT0=
EXTT1=
EXTT2=
EXTT3=
EXTT4=
EXTT5=
EXTT6=
EXTT7=
EXTT8=
EXTT9=
EXTT10=
EXTT11=
EXTT12=
EXTT13=
EXTT14=
EXTT15=
PLAYORDER=
